<svg version="1.1" id="Layer_1" xmlns="http://www.w3.org/2000/svg" xmlns:xlink="http://www.w3.org/1999/xlink" x="0px" y="0px"
	 width="100%" viewBox="0 0 1204 312" enable-background="new 0 0 1204 312" xml:space="preserve">
<path fill="#0D0D0D" opacity="1.000000" stroke="none" 
	d="
M772.000000,313.000000 
	C516.166687,313.000000 260.833344,312.990356 5.500038,313.093292 
	C1.750833,313.094818 0.900839,312.249664 0.905244,308.499878 
	C1.024079,207.333359 1.022239,106.166641 0.904477,5.000111 
	C0.900492,1.576027 1.576627,0.905278 5.000023,0.906132 
	C403.666656,1.005683 802.333313,1.005683 1201.000000,0.906133 
	C1204.423340,0.905278 1205.099609,1.576029 1205.095581,5.000111 
	C1204.977905,106.333313 1204.977783,207.666702 1205.095581,308.999878 
	C1205.099487,312.423981 1204.423706,313.097534 1200.999878,313.094879 
	C1058.166626,312.984192 915.333313,313.000000 772.000000,313.000000 
z"/>
<path fill="#DDE44B" opacity="1.000000" stroke="none" 
	d="
M203.297150,79.897758 
	C203.161758,81.597824 203.468185,83.235512 203.904877,85.105713 
	C205.946655,89.574471 204.911194,93.929108 204.303848,98.632721 
	C202.701233,102.412094 201.348846,105.815247 199.907913,109.570419 
	C199.800552,110.679779 199.357285,111.165398 198.520187,111.790123 
	C196.574005,113.732010 194.878876,115.443367 193.042374,117.445404 
	C188.672760,122.746475 188.652634,122.761238 192.460846,127.953217 
	C198.855148,136.670929 205.106506,145.492950 211.583862,154.149857 
	C212.563156,155.458679 213.381943,157.173035 215.449921,156.667831 
	C217.343262,156.205276 217.129272,154.269821 217.450821,152.953613 
	C221.216476,137.539322 224.411102,121.993996 227.848328,106.505173 
	C231.715820,89.077545 235.653763,71.663895 239.399139,54.209061 
	C242.496277,39.775249 241.154190,45.375919 254.365662,41.851719 
	C262.719849,39.623219 265.499451,44.118366 268.771240,50.256580 
	C285.287201,81.242111 302.461853,111.873192 318.966278,142.867310 
	C319.730560,144.302505 320.369232,146.269958 322.540131,145.457336 
	C324.589111,144.690338 324.075012,142.680542 323.831604,141.104111 
	C321.314362,124.799934 319.389557,108.409088 316.884552,92.109261 
	C314.178619,74.502228 312.305573,56.777721 309.213379,39.229977 
	C308.686646,36.240620 308.958069,34.287804 312.914154,33.863937 
	C320.450348,33.056480 327.936310,31.753950 335.464661,30.786446 
	C338.679504,30.373291 339.906982,31.426603 341.186157,33.869640 
	C348.751434,48.318275 356.352844,62.748531 364.070984,77.116257 
	C369.425934,87.084846 374.539612,97.182182 380.056458,107.063126 
	C380.726318,108.262871 380.915314,110.435112 382.815735,110.043137 
	C384.477417,109.700394 384.466522,107.557327 384.693481,106.245415 
	C386.469238,95.980827 388.905304,85.855713 391.035980,75.669044 
	C394.587402,58.689384 398.079681,41.696152 401.811584,24.753370 
	C402.378571,22.179270 403.258789,21.327730 405.872650,20.873695 
	C413.681427,19.517307 421.597382,18.905510 429.364288,17.345688 
	C431.795746,16.857384 432.653961,17.891809 433.155304,20.021942 
	C434.558105,25.981653 435.019409,32.082508 435.950958,38.110485 
	C438.041656,51.638676 439.840637,65.213707 441.685577,78.775520 
	C443.465576,91.859756 445.655426,104.889557 447.065002,118.028313 
	C447.627502,123.271500 448.859344,128.428925 449.114136,133.734909 
	C449.214203,135.819061 448.798431,136.617172 446.644501,137.047943 
	C440.809143,138.214935 434.853088,138.498611 429.026184,139.734894 
	C425.950287,140.387466 425.366608,137.554352 425.178497,135.593338 
	C423.853821,121.785950 421.295929,108.146141 419.849823,94.346344 
	C418.631775,82.722954 418.644409,70.910088 415.269043,59.018589 
	C409.011841,81.629158 404.907349,104.293762 399.853577,126.739616 
	C399.032959,130.384247 400.113098,131.683243 403.458740,130.642517 
	C406.370880,129.736633 407.322662,131.327484 408.427155,133.352692 
	C421.494354,157.312637 434.575317,181.265121 447.617096,205.238907 
	C452.784973,214.738693 458.138977,224.138458 463.048950,233.777695 
	C463.275513,234.222473 463.398224,234.784286 463.797913,235.057617 
	C466.477875,236.890335 468.675049,239.542267 467.166168,242.524872 
	C465.872681,245.081772 462.154663,244.587234 459.494720,244.876526 
	C455.386688,245.323288 451.281403,245.830017 447.265228,246.686829 
	C444.233978,247.333527 442.623474,246.458282 441.340393,243.776398 
	C438.394073,237.618073 435.243561,231.557220 432.221771,225.434738 
	C430.960266,222.878784 429.655182,222.075241 426.418457,222.546951 
	C415.805145,224.093750 405.222748,225.934372 394.541626,227.004608 
	C387.833893,227.676697 386.755646,228.569473 386.050354,235.311539 
	C385.412323,241.411041 383.313232,247.238235 382.887634,253.369919 
	C382.763824,255.153580 381.584351,255.792191 379.846191,256.003113 
	C367.229034,257.534210 354.699768,259.703979 342.080658,261.256714 
	C339.558472,261.567047 338.373688,260.881805 337.173340,259.173492 
	C333.540924,254.003815 329.506134,249.110199 326.306885,243.171448 
	C326.168854,242.794540 326.120697,242.877258 326.166260,242.862640 
	C323.830414,241.289703 322.712250,238.781876 321.284851,236.106079 
	C321.182312,235.782730 321.129578,235.875168 321.177917,235.852951 
	C317.300476,231.822601 314.201691,227.208847 311.348206,222.041428 
	C311.312805,221.693298 311.081238,221.956161 311.206848,221.834015 
	C304.664276,219.730286 298.225830,221.664429 291.901428,223.274765 
	C289.158325,223.973221 289.926544,227.162933 290.308228,229.320724 
	C292.229248,240.181244 293.353271,251.152161 294.916443,262.060730 
	C295.703064,267.550018 294.763428,268.527557 289.088196,269.081482 
	C284.517426,269.527588 279.994568,270.047852 275.491608,270.994354 
	C271.433533,271.847351 271.180450,268.100403 270.925171,265.886292 
	C268.610382,245.812012 265.697083,225.814865 262.824707,205.823685 
	C260.375183,188.775253 258.140198,171.700165 255.684372,154.655472 
	C255.265228,151.746353 256.195557,151.254364 258.644928,150.965561 
	C268.733459,149.776062 278.684204,147.563980 288.850830,146.900711 
	C290.474487,146.794785 292.042633,146.084000 293.735352,145.059235 
	C291.658508,140.405930 290.683411,135.375519 286.376587,132.105774 
	C278.779602,134.715118 271.113342,134.764786 263.644318,135.926987 
	C258.274414,136.762543 252.918869,137.796707 247.466705,138.141144 
	C245.486847,138.266205 244.432098,139.575912 243.848282,141.651367 
	C243.042282,144.516785 243.071991,147.593170 241.442566,150.655518 
	C241.126633,151.453827 241.022095,151.887955 240.957977,152.656296 
	C240.999435,153.816391 241.229065,154.725800 240.962692,155.455078 
	C238.571228,162.002884 240.758911,167.113388 245.815063,171.729477 
	C245.878998,172.399597 246.010269,172.682037 246.444794,173.023544 
	C250.998383,176.426239 252.076294,181.364090 253.180603,186.628830 
	C253.094894,187.170456 253.073288,187.339828 253.154236,187.743866 
	C257.435913,199.854935 254.814484,210.481888 247.003860,219.932373 
	C239.124435,229.466110 228.239075,233.185333 216.464905,234.996307 
	C209.775162,236.025253 203.060013,236.874359 196.373947,237.938843 
	C193.449738,238.404404 193.079498,239.459122 193.522339,242.276596 
	C195.393051,254.178177 196.757339,266.157501 198.823227,278.033295 
	C199.197998,280.187714 198.524033,281.781616 196.158493,281.901428 
	C190.528061,282.186615 185.018906,283.387634 179.457092,284.132172 
	C175.198380,284.702240 174.011887,282.468170 173.684631,279.296814 
	C172.864685,271.350800 171.532059,263.481232 170.444901,255.576553 
	C166.706772,228.396423 162.896286,201.226166 158.924500,174.079056 
	C158.706528,172.589203 158.594193,171.112625 158.499344,169.617813 
	C158.244980,165.609009 160.322342,163.814560 164.081879,163.527466 
	C169.229279,163.134399 174.298233,162.160400 179.400589,161.438644 
	C184.159454,160.765472 185.149033,158.712631 182.348114,154.712509 
	C178.629486,149.401794 175.029297,143.995438 170.601624,138.682831 
	C170.110077,138.175064 169.931335,137.953354 169.561615,137.349243 
	C167.382446,132.785568 163.754227,132.052963 159.701797,132.582718 
	C146.735626,134.277802 147.031021,133.909409 148.529770,145.078949 
	C149.656616,153.476791 150.847198,161.865799 152.141953,170.238388 
	C153.302063,177.740280 152.587738,179.041824 145.198502,180.173157 
	C141.599945,180.724106 138.013992,181.524765 134.326645,181.508850 
	C128.397156,181.483246 126.540619,180.196259 126.727295,174.346893 
	C127.115768,162.174500 123.995636,150.442245 122.670448,138.496948 
	C121.491425,127.869141 119.620483,117.285133 118.124725,106.678383 
	C116.259399,93.450974 114.592369,80.181862 112.603073,66.979500 
	C111.890244,62.248711 114.192093,61.607594 117.074348,61.261169 
	C122.811005,60.571671 128.537247,59.792522 134.247543,58.950291 
	C142.565735,57.723404 150.890656,56.496803 159.230408,55.493397 
	C172.537811,53.892292 185.049637,55.900978 195.398911,65.417572 
	C196.393234,66.331909 197.149811,67.415993 197.743622,69.096954 
	C199.026932,71.847389 200.213791,74.176941 201.630615,76.748672 
	C202.638382,77.838890 203.742645,78.471336 203.297150,79.897758 
z"/>
<path fill="#DDE44B" opacity="1.000000" stroke="none" 
	d="
M986.260010,114.106300 
	C985.121399,112.743797 984.179443,111.654198 983.091553,110.288521 
	C981.389832,108.176025 979.267639,106.802376 978.273132,104.108093 
	C978.168335,103.794380 978.118408,103.877701 978.164551,103.862457 
	C976.206238,102.390274 974.389282,100.766449 973.281738,98.102615 
	C973.182007,97.782814 973.119324,97.881897 973.171143,97.854553 
	C968.846008,95.764450 968.752136,95.769463 968.992676,100.273758 
	C969.469055,109.193718 971.275330,117.950935 972.463318,126.782516 
	C973.914307,137.569443 975.635620,148.323151 976.927551,159.130325 
	C977.241150,161.753799 977.782776,164.355179 978.165833,166.948227 
	C978.771729,171.049835 976.927124,172.241577 973.550171,172.671509 
	C968.476074,173.317490 963.402832,173.928665 958.361938,174.857651 
	C955.364929,175.409988 953.496704,173.697342 953.539124,170.615280 
	C953.696533,159.165924 951.030823,148.035019 949.655029,136.771866 
	C947.996216,123.191780 945.766235,109.673317 943.937866,96.103722 
	C942.263489,83.677010 940.352356,71.282768 938.751099,58.843319 
	C938.402832,56.138477 938.969666,55.304321 941.567017,54.966526 
	C947.455322,54.200737 953.366150,53.513611 959.191833,52.370956 
	C961.274292,51.962498 962.208008,52.856945 963.336792,54.207729 
	C970.684204,62.999683 978.020020,71.800797 985.286804,80.659790 
	C995.500244,93.111031 1005.836365,105.461235 1016.031250,117.928238 
	C1017.005737,119.119972 1018.099792,121.264275 1019.887756,120.478531 
	C1021.912109,119.588860 1021.128357,117.173416 1020.865173,115.515221 
	C1017.348633,93.361427 1014.903076,71.051857 1011.155090,48.932770 
	C1010.746155,46.519806 1011.747620,45.463646 1014.256226,44.881233 
	C1020.069641,43.531513 1026.059814,43.512218 1031.867798,42.177109 
	C1033.873657,41.715984 1034.696045,43.120815 1035.015503,45.098305 
	C1036.515747,54.383907 1037.687744,63.714478 1039.002441,73.025375 
	C1040.524292,83.803886 1042.022949,94.585388 1043.597534,105.356850 
	C1045.124634,115.803116 1046.427490,126.283096 1048.006592,136.722961 
	C1048.968018,143.080048 1049.467163,149.502289 1050.774048,155.811234 
	C1051.677124,160.171539 1050.878418,161.044296 1046.520142,162.119293 
	C1041.207886,163.429626 1035.697632,163.360886 1030.406616,164.714417 
	C1027.675415,165.413101 1026.482056,163.614410 1025.295166,161.204102 
	C1025.137573,160.822205 1025.094849,160.900345 1025.137573,160.887802 
	C1023.234497,159.361954 1021.373291,157.774200 1020.281494,155.102310 
	C1020.182007,154.782837 1020.126343,154.876923 1020.175659,154.853394 
	C1016.435242,152.097031 1014.083679,148.140030 1011.262512,144.149933 
	C1011.123169,143.835709 1011.086182,143.913849 1011.127197,143.900070 
	C1009.245483,142.351044 1007.367065,140.777100 1006.281372,138.102203 
	C1006.182007,137.782837 1006.126343,137.876907 1006.175659,137.853394 
	C1002.782898,135.782593 1001.262451,131.973419 998.268738,129.060425 
	C998.087952,128.771606 998.065186,128.368973 997.977966,128.187164 
	C997.702332,127.743889 997.498413,127.495125 997.187561,127.035690 
	C997.096191,126.812294 997.092407,126.887657 997.130127,126.886856 
	C995.245300,125.350830 993.366943,123.776901 992.281494,121.102051 
	C992.182312,120.782654 992.126221,120.876907 992.175720,120.853271 
	C989.712219,119.207268 987.972046,116.893730 986.260010,114.106300 
z"/>
<path fill="#131306" opacity="1.000000" stroke="none" 
	d="
M326.154724,243.170532 
	C329.990479,248.021957 333.823364,253.241226 337.626099,258.482361 
	C338.617035,259.848114 339.406738,260.996613 341.586395,260.662933 
	C353.759521,258.799469 365.956940,257.089722 378.161011,255.437866 
	C380.587128,255.109482 381.821167,254.430191 382.218506,251.627701 
	C383.198059,244.718506 384.843964,237.906281 385.954865,231.012039 
	C386.404175,228.223694 387.535522,227.180450 390.385651,226.824890 
	C402.773560,225.279510 415.141327,223.548203 427.478363,221.638641 
	C430.110077,221.231308 431.330750,221.802307 432.448425,224.186966 
	C435.481873,230.659225 438.900208,236.950851 441.944336,243.418411 
	C442.988953,245.637833 444.286865,246.261963 446.594788,245.890656 
	C453.164764,244.833649 459.758270,243.922989 467.022552,242.854752 
	C463.128540,235.658188 459.411194,228.742722 455.652618,221.849747 
	C439.891510,192.945007 424.069244,164.073395 408.420624,135.107925 
	C406.758057,132.030563 405.218933,130.398956 401.569702,131.692810 
	C398.990143,132.607391 397.602631,132.134445 398.382233,128.669510 
	C404.146454,103.050560 409.742310,77.393730 415.568848,50.941959 
	C417.774628,55.410286 417.269165,59.610085 417.625275,63.513569 
	C419.789307,87.233894 422.504303,110.878456 425.880890,134.458527 
	C426.465546,138.541489 427.638763,139.360046 431.492126,138.486618 
	C436.346039,137.386383 441.347748,136.898666 446.305298,136.312958 
	C448.495544,136.054184 448.813049,135.235916 448.510254,133.103043 
	C443.222473,95.857323 438.032532,58.597679 432.863129,21.335258 
	C432.542236,19.022169 431.968628,17.719057 429.136108,18.186941 
	C421.912109,19.380190 414.662781,20.505333 407.380798,21.225080 
	C403.818207,21.577206 402.822235,23.349455 402.176117,26.464205 
	C396.197754,55.283573 390.089600,84.076019 384.011078,112.874573 
	C383.921326,113.299805 383.728546,113.703278 383.285583,114.969604 
	C379.340240,107.699402 375.669098,101.063065 372.116547,94.363838 
	C361.599731,74.531784 351.055634,54.713303 340.719330,34.787258 
	C339.128082,31.719715 337.581238,30.933998 334.167908,31.608852 
	C327.483032,32.930515 320.685211,33.761665 313.899475,34.458305 
	C310.440735,34.813385 309.605804,36.084465 310.111084,39.494518 
	C313.404724,61.722988 316.502930,83.980446 319.657623,106.229477 
	C321.363403,118.259880 323.099487,130.286423 324.696838,142.331284 
	C324.902405,143.881134 326.249359,146.322113 323.940704,146.953613 
	C321.921021,147.506027 319.948975,146.439423 318.707916,144.105774 
	C312.697876,132.804596 306.487457,121.610054 300.358307,110.372154 
	C288.496857,88.624207 276.573456,66.909431 264.870941,45.076260 
	C263.389069,42.311535 261.770325,41.527302 258.997498,42.185665 
	C258.026703,42.416168 257.036377,42.568867 256.050964,42.732876 
	C251.504700,43.489544 245.558533,42.239227 242.789581,45.452377 
	C240.091888,48.582886 240.210480,54.181797 239.204117,58.721680 
	C232.151352,90.537987 225.135666,122.362511 218.071030,154.176178 
	C217.702713,155.834824 218.152344,158.176025 215.819870,158.675385 
	C213.323868,159.209732 212.438553,156.907669 211.306870,155.367722 
	C204.505264,146.112381 197.782486,136.799164 191.008362,127.523552 
	C186.987411,122.017784 186.966843,122.032806 192.588333,117.872795 
	C189.513611,122.428452 191.842941,125.840683 194.925888,129.700958 
	C200.632950,136.847031 205.759125,144.455170 211.206680,151.812027 
	C212.218414,153.178391 212.787216,155.772705 215.019302,155.078125 
	C216.894806,154.494507 216.753922,152.049057 217.138031,150.315628 
	C221.135727,132.274948 225.072632,114.220818 229.059402,96.177711 
	C232.579376,80.247192 236.264114,64.351639 239.604935,48.383911 
	C240.531464,43.955540 242.908752,42.301247 247.105942,41.973267 
	C250.907944,41.676163 254.710693,41.107983 258.447937,40.341549 
	C262.256897,39.560410 264.723083,40.626324 266.622650,44.159416 
	C281.837311,72.457962 297.172455,100.691734 312.467468,128.947113 
	C314.845032,133.339386 317.182983,137.753326 319.592163,142.128113 
	C320.115051,143.077606 320.519409,144.635452 322.019501,144.062851 
	C323.409332,143.532303 322.899750,142.088898 322.741150,140.979355 
	C320.272369,123.706673 317.765381,106.439430 315.308167,89.165115 
	C312.897400,72.217468 310.543701,55.261707 308.139008,38.313190 
	C307.654297,34.896755 308.566315,33.190578 312.488739,32.850452 
	C320.095367,32.190865 327.711182,31.229519 335.197021,29.753408 
	C339.067688,28.990166 340.716980,30.598539 342.216248,33.472721 
	C345.681915,40.116756 349.180939,46.743462 352.678284,53.370941 
	C362.159180,71.337524 371.644135,89.301994 381.141052,107.260132 
	C381.429016,107.804588 381.867737,108.269318 382.830231,109.580460 
	C384.980316,99.536469 386.968750,90.335365 388.917480,81.125854 
	C392.914978,62.234032 396.959991,43.351692 400.804596,24.428707 
	C401.406342,21.466900 402.587646,20.258112 405.601959,19.885567 
	C413.681305,18.887016 421.731567,17.621038 429.761993,16.274275 
	C432.981018,15.734419 433.871979,17.298450 434.257904,20.009640 
	C436.131561,33.172390 438.114960,46.319550 439.980255,59.483448 
	C443.151398,81.862885 446.115265,104.272865 449.462097,126.625717 
	C451.148834,137.891205 451.439301,137.818466 440.170685,139.025482 
	C436.867218,139.379333 433.489990,139.605453 430.319702,140.502121 
	C426.161896,141.678070 424.772430,139.675476 424.328522,136.195053 
	C422.142792,119.058014 419.247070,102.011963 417.954163,84.759064 
	C417.462006,78.191589 416.486725,71.660332 415.263123,65.071228 
	C412.568878,70.438171 411.872406,76.291756 410.563049,81.942734 
	C407.331512,95.889267 404.295624,109.882065 401.305817,123.882912 
	C400.671448,126.853531 398.767151,131.067429 405.256165,129.403900 
	C407.280884,128.884842 408.375061,130.959534 409.264221,132.595490 
	C419.837280,152.048477 430.391663,171.511658 440.974030,190.959564 
	C448.821869,205.381973 456.703552,219.785950 464.630829,234.309387 
	C466.562195,232.946838 466.055511,231.320862 465.864655,229.966721 
	C463.058441,210.054962 460.163208,190.155777 457.329285,170.247894 
	C455.268219,155.769302 453.288696,141.279099 451.216644,126.802116 
	C450.856140,124.283363 451.987854,122.860863 454.256775,122.513000 
	C460.331299,121.581673 466.428711,120.790619 472.529022,120.041138 
	C475.273132,119.704002 476.713806,120.772148 477.128235,123.827576 
	C478.937622,137.167862 481.095856,150.460999 482.881622,163.804169 
	C483.304352,166.963043 484.170959,168.206619 487.565491,167.676208 
	C500.373352,165.674988 513.199341,163.768219 526.055115,162.109482 
	C529.465149,161.669510 530.246582,160.213394 529.797424,157.178452 
	C527.899658,144.356705 526.093201,131.521469 524.203003,118.698593 
	C523.596619,114.585182 524.336609,112.060898 529.386230,111.846344 
	C534.674744,111.621658 539.961731,110.661232 545.175781,109.644844 
	C548.330872,109.029816 549.512573,110.271057 549.900452,113.060867 
	C553.264709,137.258698 556.644165,161.454407 559.993103,185.654373 
	C561.747192,198.330017 563.438049,211.014420 565.196960,223.689407 
	C565.328308,224.635818 565.778137,225.538086 566.946167,226.526031 
	C569.269897,216.070740 571.598633,205.616547 573.916504,195.159943 
	C580.329590,166.229080 586.800781,137.310776 593.081543,108.351196 
	C594.026978,103.992065 595.591125,101.431831 600.577454,101.848732 
	C603.000916,102.051361 605.506042,101.236626 607.977722,100.908615 
	C617.675171,99.621681 617.514771,99.713112 622.042603,108.032562 
	C639.940369,140.917603 657.947754,173.742920 676.881836,206.434753 
	C676.119202,200.736221 675.390198,195.032974 674.588074,189.339996 
	C671.411377,166.794159 668.208130,144.252060 665.022522,121.707458 
	C663.883057,113.643219 662.913696,105.550941 661.562195,97.522728 
	C661.058777,94.532211 661.607422,93.281136 664.767822,92.887589 
	C673.175232,91.840668 681.551086,90.536491 689.931641,89.282013 
	C692.813232,88.850662 694.199646,90.571968 695.349854,92.750130 
	C701.725464,104.824448 708.104187,116.897148 714.475464,128.973801 
	C721.002197,141.345169 727.519592,153.721466 734.047913,166.091965 
	C734.495911,166.940750 734.862488,167.902176 736.569458,168.256180 
	C738.724915,157.972748 740.855835,147.787933 742.994995,137.604874 
	C746.725281,119.847839 750.469666,102.093758 754.183472,84.333267 
	C754.706360,81.832573 755.745117,80.180222 758.625244,79.793381 
	C766.859497,78.687424 775.054871,77.294868 783.281189,76.125313 
	C785.996460,75.739281 787.587463,76.842880 787.997498,79.869522 
	C791.968689,109.183029 796.023560,138.485260 800.087830,167.786087 
	C801.161072,175.523819 802.278992,183.256790 803.508240,190.970932 
	C804.416260,196.669647 804.011963,197.315598 798.473389,198.057953 
	C793.201660,198.764542 787.911743,199.399246 782.688049,200.376816 
	C779.690918,200.937698 778.427917,200.140213 777.995728,197.076096 
	C774.839783,174.702805 771.670471,152.333832 769.979614,129.786133 
	C769.888184,128.567307 770.318420,126.722893 768.375305,126.736778 
	C766.852112,126.747658 767.100403,128.437988 766.863098,129.506607 
	C761.630310,153.072266 756.315186,176.620621 751.303345,200.233292 
	C750.571045,203.683563 748.970215,205.082336 745.849365,205.527023 
	C742.723145,205.972458 739.609314,206.508423 736.479065,206.920761 
	C733.752869,207.279892 731.634766,206.506241 730.363525,203.772675 
	C727.373413,197.343216 722.646301,191.751358 721.159424,184.216675 
	C723.908997,183.343506 725.120544,185.173218 726.122009,187.157440 
	C728.000305,190.879028 730.442871,194.309769 732.131348,198.100159 
	C734.092102,202.501556 737.369751,202.301193 741.271057,201.823395 
	C744.989868,201.367950 746.892517,199.629028 747.685730,196.029831 
	C751.377380,179.279022 755.093445,162.533600 758.735657,145.771866 
	C761.069458,135.031784 763.554138,124.324860 765.820740,113.570023 
	C766.282227,111.380333 766.899841,108.913803 769.544861,109.008621 
	C772.041321,109.098122 772.201538,111.726929 772.514587,113.620499 
	C773.844360,121.664345 774.520386,129.801590 775.127258,137.912430 
	C776.445129,155.523590 779.057861,172.961624 781.477234,190.428650 
	C782.093445,194.877472 783.565308,195.909866 787.867676,195.257950 
	C799.040466,193.565033 799.818481,195.261871 797.872864,182.162033 
	C793.423523,152.205490 789.588257,122.159935 785.086304,92.209587 
	C785.036804,91.880379 784.952271,91.553925 784.935547,91.221825 
	C784.381042,80.192230 782.983948,80.309113 773.186157,82.024590 
	C770.572815,82.482155 767.922485,83.085335 765.282959,83.127464 
	C760.354797,83.206123 758.293762,85.777061 757.366333,90.356812 
	C752.177185,115.981148 746.698608,141.546005 741.251343,167.116776 
	C740.583984,170.249359 740.755432,174.626877 736.619690,175.087997 
	C732.723267,175.522446 732.129333,171.207855 730.684265,168.569672 
	C718.044067,145.492859 706.015198,122.088722 693.524048,98.930710 
	C691.295105,94.798370 688.349976,93.706230 684.122314,94.493156 
	C679.703125,95.315720 675.241699,95.863274 670.783386,96.429474 
	C667.562439,96.838531 666.223572,98.486320 666.699341,101.913376 
	C671.436279,136.033157 676.174133,170.152710 681.165283,204.236374 
	C681.921387,209.399811 682.890503,209.992126 688.155945,209.214005 
	C699.160095,207.587814 699.059143,207.601257 697.582642,196.536224 
	C694.586609,174.083542 690.217285,151.868973 686.158752,129.599899 
	C685.859314,127.956917 685.648560,126.304688 685.495178,124.647301 
	C685.348938,123.066483 685.647461,121.486534 687.308411,120.918198 
	C688.934143,120.361916 690.196045,121.375786 691.123047,122.640625 
	C693.298218,125.608498 694.817139,128.976715 696.540710,132.192444 
	C704.407654,146.870911 712.396545,161.484070 720.190308,176.201355 
	C721.327637,178.348938 722.912537,180.525192 721.474487,183.542023 
	C716.873291,181.804733 715.938354,177.225266 713.917847,173.599060 
	C706.963257,161.117645 700.362793,148.438904 693.477844,135.555481 
	C691.378479,137.104675 692.252319,138.704834 692.541992,140.188232 
	C696.876648,162.381470 700.388000,184.704422 703.355225,207.121231 
	C703.790039,210.405884 703.044617,211.620605 699.785828,212.059692 
	C686.122986,213.900528 672.480957,215.899429 658.842712,217.917511 
	C654.488708,218.561813 651.660400,217.277527 649.868164,212.932983 
	C647.714294,207.711594 644.847412,202.787109 642.360168,197.699402 
	C640.910767,194.734756 638.646606,193.674149 635.427734,194.152878 
	C624.420776,195.789932 613.415344,197.446899 602.383667,198.901443 
	C599.618225,199.266068 598.310852,200.316040 597.847961,203.125366 
	C596.793884,209.523071 595.070618,215.828949 594.336792,222.254089 
	C593.891418,226.153336 591.912964,227.350052 588.662170,227.790054 
	C578.292175,229.193726 567.918457,230.570190 557.551697,231.997330 
	C553.437805,232.563690 549.341980,233.260193 545.231262,233.851151 
	C542.210815,234.285355 540.355469,233.744202 539.886658,229.937469 
	C538.140869,215.761703 535.894592,201.648026 534.083313,187.479462 
	C533.643372,184.038330 532.203735,182.670105 528.927368,183.120193 
	C516.585571,184.815674 504.252747,186.577072 491.908173,188.251846 
	C488.021698,188.779129 486.452148,190.762299 487.046906,194.702499 
	C488.931305,207.186523 490.609558,219.702316 492.571686,232.173721 
	C493.832458,240.187149 493.292450,240.984467 485.357025,242.087631 
	C472.688385,243.848770 460.030975,245.702728 447.398804,247.706345 
	C444.092468,248.230804 442.071381,247.441101 440.615906,244.323120 
	C437.798615,238.287903 434.653259,232.406738 431.740631,226.414673 
	C430.567566,224.001373 429.152985,223.126526 426.239685,223.587860 
	C415.412689,225.302353 404.538025,226.733734 393.658630,228.089996 
	C389.533844,228.604202 387.628204,230.688385 387.056915,234.735992 
	C386.197662,240.823914 384.936279,246.854111 383.920593,252.921356 
	C383.511688,255.364059 382.395752,256.667969 379.755890,257.015656 
	C367.074280,258.685913 354.412567,260.508057 341.749847,262.318573 
	C340.419891,262.508728 339.002716,263.071594 338.063385,261.754211 
	C333.849396,255.844116 328.485901,250.680038 326.154724,243.170532 
z"/>
<path fill="#131306" opacity="1.000000" stroke="none" 
	d="
M197.853180,69.123726 
	C187.482346,56.908432 173.540924,54.712997 158.524506,56.443493 
	C144.642731,58.043228 130.833572,60.265347 116.974785,62.078472 
	C113.978439,62.470482 112.744537,63.287876 113.243530,66.725243 
	C118.573402,103.440323 123.795265,140.171539 128.844788,176.926086 
	C129.317642,180.367905 130.289917,180.990128 133.508041,180.325226 
	C138.386337,179.317337 143.360565,178.688721 148.324173,178.213608 
	C150.960449,177.961273 151.575897,177.173111 151.166519,174.488358 
	C149.310944,162.319168 147.834381,150.091934 145.953918,137.926926 
	C145.377304,134.196732 146.235306,132.513245 150.170731,132.330826 
	C153.480377,132.177429 156.882828,131.866928 160.033554,130.922943 
	C165.506836,129.283096 168.808914,131.377823 171.112473,136.497925 
	C169.724121,138.477554 168.146240,137.875656 166.742279,136.855621 
	C161.942886,133.368637 157.117706,135.842941 152.387848,136.866272 
	C150.494537,137.275909 150.529968,139.326797 150.784912,141.095840 
	C152.184647,150.808304 153.325577,160.556870 154.807098,170.257553 
	C155.111618,172.251480 155.199448,174.229309 155.116394,176.230194 
	C154.969772,179.762344 153.181244,181.637497 149.638794,182.181396 
	C143.391678,183.140594 137.097580,183.791824 130.887680,184.987076 
	C125.763863,185.973328 125.314323,186.601288 127.730492,191.060181 
	C134.472031,203.501312 141.272156,215.911285 148.042587,228.337082 
	C155.407471,241.853882 162.855911,255.325928 169.683960,268.078705 
	C167.247299,253.082962 165.049103,237.097153 162.899429,221.110947 
	C160.793518,205.450119 158.396301,189.831757 156.314407,174.168640 
	C156.205490,173.349152 155.979752,172.540298 155.885071,171.711319 
	C154.928665,163.337997 156.179382,161.820862 164.522064,160.752518 
	C168.809464,160.203476 173.097763,159.636063 177.355270,158.847717 
	C180.157562,158.328827 180.713165,157.155334 179.095993,154.772552 
	C176.663986,151.189240 173.955536,147.796585 171.644211,144.139008 
	C170.352463,142.094849 168.587494,139.940735 170.901413,137.056976 
	C176.529938,144.174469 181.891403,151.562790 187.263535,158.943375 
	C188.645279,160.841690 188.412369,161.740250 185.851852,162.053040 
	C178.423950,162.960403 171.034637,164.192505 163.600616,165.036865 
	C160.492096,165.389923 159.382492,166.262451 159.885574,169.698547 
	C163.210037,192.404892 166.302826,215.145172 169.471283,237.874359 
	C171.353790,251.378586 173.280304,264.876923 175.090179,278.390869 
	C175.568924,281.965515 175.947571,284.673553 180.954437,283.191559 
	C185.210800,281.931793 189.793839,281.536591 194.260757,281.303345 
	C197.804199,281.118317 198.180801,279.648041 197.717056,276.610352 
	C195.910080,264.773987 194.425354,252.887848 192.559509,241.061462 
	C192.086456,238.063080 193.043655,237.360779 195.744125,236.993912 
	C204.800125,235.763596 213.950363,234.841049 222.830399,232.787994 
	C237.779999,229.331680 249.378922,221.521957 253.306320,205.531006 
	C254.675369,199.956711 254.397308,194.308594 253.243378,188.341492 
	C257.924255,192.573181 256.231812,198.320831 255.482925,203.503754 
	C252.796326,222.097626 237.694260,231.691223 222.213852,234.904388 
	C214.411880,236.523819 206.465546,237.471878 198.563644,238.573959 
	C195.368088,239.019638 194.105576,239.970047 194.736679,243.690979 
	C196.625854,254.829330 197.871872,266.075256 199.622391,277.239471 
	C200.199188,280.918091 199.013870,282.478729 195.439926,282.971497 
	C181.774353,284.855621 168.122696,286.842194 154.473511,288.842865 
	C150.744568,289.389435 148.041473,288.401703 146.341461,284.751312 
	C143.809479,279.314392 140.888931,274.058014 138.372955,268.614258 
	C137.040161,265.730530 135.048508,264.603790 132.040344,265.030090 
	C121.017105,266.592346 110.005188,268.238342 98.969910,269.709534 
	C95.817047,270.129883 94.398773,271.616760 93.890831,274.758209 
	C92.828865,281.326141 91.334999,287.823273 90.200539,294.380951 
	C89.797653,296.709747 88.802032,297.869476 86.419052,298.178955 
	C79.994400,299.013275 73.603065,300.109406 67.173805,300.900848 
	C63.285645,301.379517 62.771908,299.187897 63.507290,295.895416 
	C67.862091,276.397858 72.089302,256.871857 76.425858,237.370163 
	C80.871162,217.379456 85.388420,197.404709 89.892319,177.427078 
	C90.143738,176.311859 90.286819,174.498199 90.943161,174.254105 
	C96.597313,172.151291 93.227219,169.095261 92.102448,166.096802 
	C90.609947,162.118057 87.603157,161.573120 84.021713,162.103394 
	C73.498787,163.661423 63.006592,165.469223 52.448112,166.722031 
	C48.730408,167.163147 47.744820,169.135040 47.220600,172.120041 
	C46.184681,178.018723 44.977364,183.892944 44.150269,189.820450 
	C43.691051,193.111526 42.383308,194.888077 38.927608,195.303543 
	C32.990353,196.017365 27.100801,197.119278 21.172512,197.919693 
	C17.782194,198.377441 15.868264,197.751572 16.860565,193.329224 
	C25.717911,153.855225 34.388577,114.339310 43.087177,74.829788 
	C43.733997,71.891891 45.086887,70.119278 48.401169,69.953522 
	C51.710304,69.788040 55.010662,69.222916 58.286938,68.668068 
	C66.806946,67.225197 67.369659,67.429443 71.342476,74.741470 
	C88.271454,105.899498 105.179115,137.069092 122.129272,168.215591 
	C122.781273,169.413651 123.088295,171.658844 124.986679,170.996201 
	C126.710136,170.394623 125.932648,168.400543 125.733421,166.989197 
	C120.948219,133.090042 116.165764,99.190407 111.283745,65.305130 
	C110.827202,62.136353 112.168648,61.136494 114.943031,60.754566 
	C126.137245,59.213531 137.320389,57.592045 148.506973,55.995602 
	C157.716614,54.681286 166.866180,52.919952 176.251678,54.966637 
	C182.890747,56.414410 188.966888,58.906078 194.343231,63.016586 
	C196.184235,64.424133 197.994064,66.026123 197.853180,69.123726 
z"/>
<path fill="#131306" opacity="1.000000" stroke="none" 
	d="
M1025.132324,161.206894 
	C1027.268433,163.635559 1029.809937,164.313126 1033.352173,163.382584 
	C1037.184204,162.375961 1041.231201,161.954071 1045.205933,161.787048 
	C1049.534668,161.605118 1050.629028,159.925766 1049.962646,155.668655 
	C1047.672119,141.037216 1045.743408,126.349106 1043.678833,111.682289 
	C1040.756470,90.921021 1037.805176,70.163757 1034.932129,49.395672 
	C1034.024048,42.832260 1034.123169,42.838501 1027.532227,43.762272 
	C1023.742371,44.293449 1019.952209,44.865654 1016.143005,45.202869 
	C1012.891541,45.490715 1011.679688,46.575851 1012.222351,50.211201 
	C1015.932190,75.062614 1019.401001,99.950012 1022.936768,124.827347 
	C1023.005920,125.313950 1022.945374,125.818993 1022.945374,127.586967 
	C1020.167297,124.250587 1018.017639,121.685844 1015.886108,119.106178 
	C998.600464,98.187172 981.275635,77.300194 964.091370,56.298218 
	C962.059509,53.814968 960.271118,52.815983 956.964233,53.567760 
	C951.949768,54.707726 946.792114,55.295635 941.665161,55.827606 
	C939.345093,56.068329 939.080811,56.926048 939.374023,58.992752 
	C944.657227,96.226479 949.903931,133.465530 955.031799,170.720871 
	C955.436523,173.661377 956.639465,174.288254 959.259644,173.865738 
	C964.187195,173.071121 969.125183,172.296234 974.086060,171.768951 
	C977.353027,171.421738 977.808716,170.114410 977.338318,166.946976 
	C973.818054,143.244171 970.549622,119.503899 967.224792,95.772224 
	C967.000305,94.169777 966.958252,92.541763 966.719666,89.503494 
	C969.362488,92.735863 971.182495,94.961868 973.112793,97.507538 
	C969.187012,98.337845 969.790649,101.413528 970.142273,103.942284 
	C972.199219,118.736404 974.437683,133.505157 976.549500,148.291809 
	C977.558289,155.355316 978.321411,162.455063 979.407837,169.505722 
	C979.791016,171.992599 978.907654,172.734665 976.639648,173.041809 
	C961.675049,175.068344 946.711548,177.110367 931.775269,179.332443 
	C928.689636,179.791504 927.568726,178.072601 926.485229,175.924789 
	C923.562195,170.130219 920.596191,164.355484 917.793762,158.502731 
	C916.425171,155.644547 914.529236,154.832520 911.381470,155.321747 
	C900.397400,157.028839 889.384216,158.567245 878.353699,159.942734 
	C875.536194,160.294098 874.313416,161.390442 873.847290,164.161072 
	C872.717285,170.877411 871.215088,177.530899 870.070251,184.245056 
	C869.599365,187.006775 868.067932,188.418365 865.537109,188.780182 
	C857.653687,189.907288 849.753479,190.917099 841.432312,191.970276 
	C840.656189,191.590302 840.520996,191.147324 840.807373,190.335678 
	C842.804016,189.475372 842.846863,187.918335 843.173462,186.442764 
	C851.443420,149.080093 859.694031,111.713020 868.054260,74.370529 
	C870.662354,62.721161 869.135315,64.036942 879.904785,62.756390 
	C881.552551,62.560467 883.179138,62.179222 884.828308,62.005177 
	C893.913025,61.046421 893.758240,61.144131 898.054871,69.059418 
	C913.610474,97.716049 929.288391,126.306229 944.898621,154.933197 
	C947.250488,159.246017 949.488281,163.621033 952.750977,167.674362 
	C952.126526,162.697052 951.562439,157.711304 950.867615,152.743820 
	C946.473328,121.326508 942.091736,89.907234 937.568909,58.508350 
	C937.140564,55.534225 937.556030,54.246040 940.798706,53.951885 
	C946.583313,53.427132 952.382935,52.755573 958.072571,51.624115 
	C960.988708,51.044189 962.705139,51.733307 964.493347,53.915089 
	C977.972107,70.360397 991.523010,86.746712 1005.081787,103.126244 
	C1009.573242,108.552101 1014.153870,113.904182 1018.693726,119.289993 
	C1019.146973,119.092628 1019.600220,118.895264 1020.053528,118.697906 
	C1019.229797,112.562889 1018.443604,106.422562 1017.575195,100.293877 
	C1015.128845,83.027489 1012.658386,65.764496 1010.172058,48.503822 
	C1009.760010,45.642906 1010.712585,44.247322 1013.780823,43.881664 
	C1019.714966,43.174461 1025.605835,42.103241 1031.513916,41.178200 
	C1034.360718,40.732464 1035.644653,41.719269 1036.066895,44.809494 
	C1040.991211,80.848816 1046.079224,116.865715 1051.072266,152.895721 
	C1052.442139,162.781128 1052.360962,162.773239 1042.472168,163.946304 
	C1038.679321,164.396225 1034.868530,164.793381 1031.122314,165.509628 
	C1027.681152,166.167542 1025.560303,165.297745 1025.132324,161.206894 
z"/>
<path fill="#111205" opacity="1.000000" stroke="none" 
	d="
M840.855591,189.660492 
	C841.012024,190.462540 841.008911,190.892883 841.005371,191.645691 
	C833.457397,193.106766 825.889587,194.128983 818.372192,195.440140 
	C815.279907,195.979492 815.080933,194.108963 814.779358,192.063202 
	C813.181641,181.225266 811.560608,170.390564 810.015991,159.545029 
	C806.458557,134.566544 802.719727,109.610809 799.507019,84.587746 
	C798.076233,73.443031 794.996216,74.783844 807.961975,72.896301 
	C811.246887,72.418083 814.557739,72.014137 817.784424,71.264908 
	C822.263855,70.224815 824.257324,72.037247 824.830994,76.385330 
	C826.828369,91.524986 828.885254,106.657310 831.021118,121.778084 
	C834.200684,144.288071 837.466736,166.785843 840.855591,189.660492 
z"/>
<path fill="#131306" opacity="1.000000" stroke="none" 
	d="
M293.446777,144.784302 
	C295.781677,147.378128 293.407349,146.854889 292.121643,147.040115 
	C281.418762,148.581909 270.723206,150.183044 259.999664,151.566833 
	C256.983276,151.956055 256.010590,152.628616 256.516449,156.114975 
	C261.843750,192.830597 266.937927,229.580185 272.018280,266.331207 
	C272.359253,268.797821 272.696472,270.461029 275.837189,269.916321 
	C281.078644,269.007202 286.361786,268.330139 291.637238,267.629211 
	C293.956421,267.321045 294.923004,266.723206 294.460114,263.856567 
	C292.497711,251.703293 291.002014,239.475449 289.152740,227.302643 
	C288.607178,223.711624 289.058716,221.864868 293.362946,221.761139 
	C297.823364,221.653687 302.255524,220.551804 306.711273,219.971298 
	C308.273041,219.767822 310.078094,218.994476 311.223877,221.389908 
	C306.201813,222.172607 301.068054,222.602203 295.941406,223.104172 
	C292.017853,223.488358 290.632202,225.390747 291.284119,229.527985 
	C293.145844,241.342941 294.546814,253.229843 296.314667,265.060730 
	C296.691254,267.580872 296.325165,268.718597 293.592804,269.066895 
	C287.495483,269.844086 281.425995,270.853943 275.360138,271.859131 
	C271.160614,272.555023 270.669037,269.529388 270.255554,266.722717 
	C268.753998,256.529785 267.424347,246.311707 265.983917,236.109604 
	C263.126617,215.872299 260.217316,195.642319 257.375427,175.402863 
	C256.405060,168.492081 255.761551,161.529968 254.597946,154.654037 
	C254.004639,151.147980 255.392670,150.369812 258.456696,149.952347 
	C269.981659,148.382065 281.474396,146.575470 293.446777,144.784302 
z"/>
<path fill="#131306" opacity="1.000000" stroke="none" 
	d="
M241.540924,150.865494 
	C243.295410,137.879272 243.298889,137.904938 256.488434,136.117172 
	C266.054596,134.820541 275.610046,133.444565 285.594666,132.143280 
	C282.109283,136.164215 276.752716,134.955856 272.056732,135.837524 
	C264.266968,137.300079 256.346710,138.093964 248.464111,139.022491 
	C245.427383,139.380188 244.884872,141.604828 244.288757,143.852875 
	C243.663269,146.211700 243.926865,148.871109 241.540924,150.865494 
z"/>
<path fill="#131306" opacity="1.000000" stroke="none" 
	d="
M246.022461,171.842346 
	C237.940430,167.679382 238.061111,161.039124 240.845520,153.343323 
	C241.089340,153.128632 241.267151,153.272247 241.258759,153.404037 
	C240.836761,160.037552 241.656631,166.328949 246.022461,171.842346 
z"/>
<path fill="#131306" opacity="1.000000" stroke="none" 
	d="
M311.268829,222.072784 
	C314.552460,226.184357 317.792145,230.675415 321.129028,235.498596 
	C315.863342,232.888184 313.164276,227.954163 311.268829,222.072784 
z"/>
<path fill="#131306" opacity="1.000000" stroke="none" 
	d="
M253.297775,186.699005 
	C251.542694,182.365875 249.802353,177.808960 246.783173,173.459457 
	C250.840225,174.936478 253.708664,180.518799 253.297775,186.699005 
z"/>
<path fill="#131306" opacity="1.000000" stroke="none" 
	d="
M1011.118530,144.206223 
	C1014.082520,147.285843 1017.041931,150.735992 1020.113159,154.507996 
	C1015.159607,153.214600 1013.041931,148.979980 1011.118530,144.206223 
z"/>
<path fill="#131306" opacity="1.000000" stroke="none" 
	d="
M204.397491,98.829071 
	C204.008362,94.685616 203.963120,90.362282 203.976501,85.688583 
	C207.277435,89.615669 206.523575,94.105156 204.397491,98.829071 
z"/>
<path fill="#131306" opacity="1.000000" stroke="none" 
	d="
M998.138550,129.125412 
	C1001.764954,130.599167 1003.284546,134.455612 1006.113159,137.508026 
	C1001.584412,136.934387 1000.275757,132.832458 998.138550,129.125412 
z"/>
<path fill="#131306" opacity="1.000000" stroke="none" 
	d="
M986.115601,114.192635 
	C988.729797,115.310905 990.024841,118.070129 992.114746,120.509705 
	C988.550049,120.334976 987.110901,117.682755 986.115601,114.192635 
z"/>
<path fill="#131306" opacity="1.000000" stroke="none" 
	d="
M321.167267,236.158936 
	C322.801178,237.917480 324.420044,240.052231 326.125366,242.517517 
	C322.669220,242.231308 321.758026,239.505600 321.167267,236.158936 
z"/>
<path fill="#131306" opacity="1.000000" stroke="none" 
	d="
M1020.166382,155.157425 
	C1021.786072,156.599518 1023.390137,158.416183 1025.087280,160.554047 
	C1022.168030,160.351471 1020.407898,158.649109 1020.166382,155.157425 
z"/>
<path fill="#131306" opacity="1.000000" stroke="none" 
	d="
M1006.166321,138.157227 
	C1007.779541,139.603943 1009.377075,141.425064 1011.071411,143.566223 
	C1008.168091,143.345398 1006.405457,141.644943 1006.166321,138.157227 
z"/>
<path fill="#131306" opacity="1.000000" stroke="none" 
	d="
M992.166626,121.157036 
	C993.774658,122.605827 995.367004,124.429001 997.063599,126.569122 
	C994.167480,126.345505 992.405762,124.644363 992.166626,121.157036 
z"/>
<path fill="#131306" opacity="1.000000" stroke="none" 
	d="
M978.153320,104.164658 
	C979.766235,105.641136 981.364075,107.487892 982.953735,109.673546 
	C980.192261,109.196671 978.339294,107.590698 978.153320,104.164658 
z"/>
<path fill="#131306" opacity="1.000000" stroke="none" 
	d="
M973.166443,98.157867 
	C974.792419,99.591789 976.402832,101.400749 978.111938,103.528458 
	C975.158203,103.376183 973.420105,101.653793 973.166443,98.157867 
z"/>
<path fill="#131306" opacity="1.000000" stroke="none" 
	d="
M198.547714,111.996025 
	C198.622040,111.396660 198.974945,110.772682 199.573608,110.035568 
	C200.935364,111.306747 200.034668,111.713638 198.547714,111.996025 
z"/>
<path fill="#131306" opacity="1.000000" stroke="none" 
	d="
M203.021179,79.620461 
	C202.521545,79.187233 202.187775,78.414330 201.857300,77.316147 
	C202.854340,77.434662 203.546127,78.053368 203.021179,79.620461 
z"/>
<path fill="#131306" opacity="1.000000" stroke="none" 
	d="
M997.193359,127.033218 
	C997.377258,127.028214 997.658325,127.244133 997.915039,127.732712 
	C997.650574,127.787025 997.450500,127.536621 997.193359,127.033218 
z"/>
<path fill="#0D0D0D" opacity="1.000000" stroke="none" 
	d="
M223.846741,181.653625 
	C224.516830,181.937241 224.773758,182.074280 225.024628,182.554886 
	C228.475403,186.642380 230.364960,191.229965 230.931183,196.258240 
	C231.969315,205.477432 226.291901,212.878006 215.882538,215.462234 
	C208.689606,217.247940 201.203568,217.516739 193.911789,218.904251 
	C191.968597,219.274002 190.416153,218.628174 190.014893,216.179718 
	C188.256149,205.448105 187.109909,194.626526 185.215698,183.915787 
	C184.853699,181.868805 186.096542,180.480225 187.831512,180.319244 
	C196.523056,179.512787 205.067230,177.254272 213.898148,177.765472 
	C217.530289,177.975723 220.665405,179.205246 223.846741,181.653625 
z"/>
<path fill="#0D0D0D" opacity="1.000000" stroke="none" 
	d="
M171.838104,76.679535 
	C172.219070,76.917145 172.608246,76.895897 172.798325,76.938934 
	C173.208878,77.241440 173.456436,77.471779 173.947128,77.807564 
	C175.065292,78.699898 175.967377,79.457733 176.977081,80.494049 
	C179.282669,84.157188 180.789093,87.712692 181.043274,91.868942 
	C181.811813,104.436646 174.525085,110.387672 162.546066,111.978287 
	C157.641006,112.629608 152.784012,113.614029 147.841309,114.007835 
	C144.589935,114.266891 143.362885,113.131569 142.842667,109.622841 
	C141.585632,101.144394 140.846725,92.589035 139.147705,84.168816 
	C138.083405,78.894196 139.408264,77.594841 145.008286,76.960815 
	C151.238907,76.255386 157.365295,74.736061 163.715973,74.946938 
	C166.418747,75.036690 169.003342,75.278175 171.838104,76.679535 
z"/>
<path fill="#131406" opacity="1.000000" stroke="none" 
	d="
M347.852173,87.975014 
	C356.819489,103.545280 365.261169,119.373779 374.173309,134.932800 
	C376.375305,138.777023 376.453674,144.531052 382.362152,145.782333 
	C383.194794,145.958664 382.647369,147.220856 382.473969,148.003677 
	C374.903809,182.184036 367.339172,216.365631 359.546234,251.575562 
	C354.516754,244.679184 350.042908,238.540512 345.564453,232.405167 
	C341.147675,226.354309 336.810455,220.242447 332.262360,214.291855 
	C330.604279,212.122467 330.679016,211.011353 332.937347,209.204041 
	C349.743622,195.754272 352.393463,176.019470 340.133484,157.230545 
	C343.697021,155.409195 345.237122,157.983170 346.477997,160.215240 
	C353.373352,172.618683 354.231842,196.156418 341.283508,207.556000 
	C336.171417,212.056641 336.440277,212.314590 340.575073,218.157578 
	C345.848236,225.609283 351.144135,233.042206 357.076813,240.771683 
	C359.180115,236.400421 359.608337,232.131882 360.497589,228.062592 
	C365.573212,204.835693 370.769348,181.635361 376.007111,158.445343 
	C377.194641,153.187592 376.894501,148.871307 374.100800,143.843460 
	C365.139740,127.716095 356.398926,111.452309 347.904358,95.064659 
	C346.973328,93.268608 345.974304,91.537163 346.822998,89.061020 
	C347.160461,88.520752 347.330322,88.327278 347.852173,87.975014 
z"/>
<path fill="#121206" opacity="1.000000" stroke="none" 
	d="
M224.097397,181.584717 
	C212.587906,176.295303 200.762146,180.039291 189.006714,181.130005 
	C187.035217,181.312943 186.109192,182.528442 186.416550,184.594376 
	C187.880051,194.431015 189.380829,204.262756 190.736801,214.114365 
	C191.180511,217.338074 192.611496,218.246750 195.804153,217.623688 
	C201.168045,216.576920 206.608963,215.925583 212.016647,215.102341 
	C228.695709,212.563248 234.541611,200.465530 226.213364,185.750656 
	C225.808914,185.036072 225.530655,184.250046 225.140045,183.134247 
	C231.305481,186.983673 231.675064,193.531418 231.477173,199.987717 
	C231.250198,207.392975 227.098663,212.384262 220.254410,215.023758 
	C213.335953,217.691895 205.908234,217.770325 198.696289,218.877487 
	C189.898407,220.228104 189.761551,220.048416 188.409546,211.242432 
	C186.970337,201.868408 185.806488,192.452362 184.414139,183.070709 
	C184.120255,181.090607 184.225143,180.066803 186.635468,179.789963 
	C194.570816,178.878586 202.454071,177.459610 210.402985,176.739761 
	C215.395615,176.287628 220.408768,176.920410 224.097397,181.584717 
z"/>
<path fill="#141406" opacity="1.000000" stroke="none" 
	d="
M285.915161,203.027557 
	C284.304657,191.751495 282.791107,180.886826 281.115204,170.047272 
	C280.680634,167.236633 281.546082,166.235443 284.370728,165.938660 
	C290.649048,165.279037 296.879913,164.181168 303.149841,163.425659 
	C314.744019,162.028610 322.991516,167.960861 324.884583,178.923187 
	C326.871979,190.431595 321.336792,199.036240 309.850586,201.429794 
	C302.704102,202.919022 295.398285,203.643234 288.164154,204.712173 
	C287.092957,204.870438 286.160217,204.795639 285.915161,203.027557 
z"/>
<path fill="#101105" opacity="1.000000" stroke="none" 
	d="
M172.079193,76.562149 
	C162.551392,74.709381 153.061508,76.892487 143.523743,78.043625 
	C140.366486,78.424690 139.775864,80.468163 140.133072,83.037003 
	C141.367264,91.912262 142.762772,100.765556 143.938019,109.648239 
	C144.277313,112.212662 145.598740,113.262352 147.916611,112.948082 
	C154.810013,112.013435 161.847214,111.795654 168.510803,109.606010 
	C180.481369,105.672501 181.312805,95.966240 179.179138,87.171104 
	C178.712006,85.245567 177.859741,83.413452 177.134766,81.155426 
	C185.824921,88.286575 183.126923,105.106682 172.151566,110.131485 
	C163.525070,114.080902 153.959335,113.669991 144.816681,115.228088 
	C142.786301,115.574112 142.748520,114.078728 142.562408,112.766151 
	C141.021515,101.899628 139.494812,91.031097 137.959152,80.163834 
	C137.702072,78.344536 137.793411,77.071289 140.246338,76.805450 
	C148.171951,75.946495 155.978668,74.042526 163.997742,73.997841 
	C166.817612,73.982132 169.658493,74.159485 172.079193,76.562149 
z"/>
<path fill="#161607" opacity="1.000000" stroke="none" 
	d="
M248.486633,111.357666 
	C251.094116,97.561646 253.569534,84.166115 256.326263,69.248337 
	C264.322052,85.132202 271.712708,99.813934 279.410278,115.105354 
	C269.030579,116.557770 259.184265,117.907150 249.349442,119.335815 
	C247.393311,119.619980 246.987747,118.903427 247.373764,117.158134 
	C247.768539,115.373138 248.033035,113.559334 248.486633,111.357666 
z"/>
<path fill="#171807" opacity="1.000000" stroke="none" 
	d="
M417.180969,193.752945 
	C422.689087,204.614182 422.685455,204.586014 410.912262,206.110001 
	C405.319916,206.833878 399.708954,207.501892 394.175079,208.555664 
	C390.954681,209.168915 390.146637,208.623047 390.809753,205.237518 
	C393.740540,190.275177 396.443420,175.268219 399.547211,158.564011 
	C405.793945,171.014374 411.412384,182.212418 417.180969,193.752945 
z"/>
<path fill="#131406" opacity="1.000000" stroke="none" 
	d="
M339.868408,157.131409 
	C338.242859,155.744202 336.694763,154.282272 334.819489,152.511383 
	C337.835693,151.290909 340.708221,151.019104 343.561401,150.888870 
	C347.292175,150.718597 348.501068,149.281174 347.930298,145.335526 
	C344.909882,124.454536 341.726105,103.605141 337.742218,82.882698 
	C336.613495,77.011627 335.568146,71.124535 334.462769,64.825317 
	C334.421417,64.125290 334.401886,63.844742 334.783875,63.693584 
	C340.103119,71.242661 343.860779,79.303894 348.135742,87.466568 
	C348.204193,87.816231 348.044403,87.957893 347.964417,88.028633 
	C345.444458,89.384735 344.097656,87.837044 343.091217,86.038887 
	C342.048950,84.176735 341.111145,82.232918 340.547546,80.167580 
	C344.415375,92.574486 346.033875,105.455078 348.153351,118.217186 
	C349.537445,126.551338 350.607910,134.945450 351.631256,143.342133 
	C352.649475,151.696457 352.104492,152.866669 344.256226,154.928452 
	C342.989319,155.261261 341.586975,155.260651 340.369537,156.646149 
	C340.100922,156.907440 339.945831,157.056702 339.868408,157.131409 
z"/>
<path fill="#171807" opacity="1.000000" stroke="none" 
	d="
M334.632080,64.266495 
	C334.116760,63.736259 333.812378,63.066433 334.415710,62.385254 
	C334.653076,62.669266 334.890442,62.953285 335.156586,63.530136 
	C335.185364,63.822975 334.823151,64.127144 334.632080,64.266495 
z"/>
<path fill="#101105" opacity="1.000000" stroke="none" 
	d="
M174.060242,77.650284 
	C173.886185,77.747421 173.609177,77.552788 173.160278,77.170067 
	C173.311356,77.107491 173.634308,77.233009 174.060242,77.650284 
z"/>
<path fill="#DDE34B" opacity="1.000000" stroke="none" 
	d="
M721.135498,183.905518 
	C713.572449,169.468124 705.947266,155.082886 698.289734,140.714874 
	C695.034485,134.607025 691.711670,128.535233 687.566345,122.725510 
	C689.498474,133.450134 691.265015,144.207886 693.400513,154.891861 
	C696.860779,172.203964 698.943970,189.721863 701.634766,207.149170 
	C701.986389,209.426559 701.354370,209.984451 699.278625,210.248749 
	C693.664490,210.963577 688.053711,211.757843 682.486572,212.768326 
	C679.267700,213.352600 679.385498,211.222198 679.109924,209.266632 
	C676.462830,190.477966 673.808777,171.690262 671.188538,152.897827 
	C668.660583,134.766541 666.268066,116.615402 663.564392,98.510559 
	C663.126465,95.577835 663.840332,94.768532 666.515564,94.423920 
	C674.109924,93.445641 681.702332,92.411789 689.250122,91.132416 
	C692.223022,90.628510 692.902649,92.451263 693.937073,94.402390 
	C707.644226,120.256325 721.387512,146.091080 735.125488,171.928650 
	C735.509277,172.650467 735.934082,173.350494 736.909485,175.058044 
	C738.734375,166.646255 740.395996,159.148987 741.984070,151.636185 
	C746.661621,129.506760 751.368652,107.383133 755.892395,85.222183 
	C756.430359,82.586891 757.584412,81.554794 760.044128,81.230553 
	C767.139465,80.295227 774.241028,79.375908 781.298889,78.202179 
	C784.520752,77.666367 785.885925,78.171341 786.380554,81.879547 
	C789.747498,107.120010 793.399780,132.322418 796.966248,157.536240 
	C798.527954,168.577606 799.912964,179.649338 801.774109,190.640259 
	C802.460815,194.695541 801.531067,196.272095 797.397583,196.578171 
	C792.594360,196.933838 787.793945,197.658829 783.068726,198.605042 
	C780.490723,199.121292 780.056458,198.251999 779.729126,195.987671 
	C777.180725,178.358337 774.615356,160.735229 773.020752,142.983856 
	C772.053101,132.212967 770.920288,121.456909 769.126709,110.580688 
	C767.093323,119.751656 765.039856,128.918213 763.030701,138.094498 
	C758.584595,158.400986 754.075500,178.694458 749.807373,199.038422 
	C749.049561,202.650650 747.395935,203.756470 743.871826,204.092194 
	C733.218689,205.107101 733.222717,205.278595 728.156006,196.064789 
	C725.992126,192.129791 723.888428,188.161697 721.474670,184.016357 
	C721.191956,183.824081 721.060364,183.964645 721.135498,183.905518 
z"/>
<path fill="#DCE34B" opacity="1.000000" stroke="none" 
	d="
M527.055725,125.728775 
	C525.654419,114.388733 525.651855,114.370422 536.446167,112.841545 
	C540.058472,112.329910 544.626526,110.418182 547.048157,111.914032 
	C549.524963,113.443901 548.678650,118.583755 549.186768,122.161476 
	C554.054199,156.429657 558.894592,190.701767 563.842712,224.958298 
	C564.324768,228.295258 563.607605,229.781311 559.975159,229.992523 
	C555.672302,230.242722 551.338501,230.830505 547.142700,231.807053 
	C542.971497,232.777863 541.746765,231.231247 541.244324,227.308395 
	C539.405579,212.951508 537.146606,198.648117 535.344788,184.287079 
	C534.938110,181.045776 533.725830,180.561630 530.907532,180.972061 
	C516.416931,183.082291 501.917419,185.137741 487.399597,187.049881 
	C484.350891,187.451431 484.621582,189.165527 484.916962,191.266190 
	C486.770172,204.446228 488.510284,217.642899 490.466614,230.807510 
	C491.734894,239.341919 491.880554,239.385818 483.660645,240.609482 
	C479.229095,241.269196 473.858948,243.411835 470.548889,241.707275 
	C466.976196,239.867462 468.276886,233.675247 467.656982,229.371796 
	C462.793579,195.607864 458.073120,161.823349 453.228516,128.056656 
	C452.838196,125.336182 453.350433,124.171883 456.350159,123.934998 
	C461.150818,123.555878 465.953339,122.875824 470.674469,121.923416 
	C474.058289,121.240791 475.361145,122.210114 475.794434,125.627106 
	C477.406067,138.336349 479.306091,151.008743 480.971558,163.711533 
	C481.809387,170.102020 481.683929,170.098618 487.927856,169.238678 
	C501.113678,167.422729 514.290649,165.533325 527.497986,163.888306 
	C531.201599,163.426987 532.482361,162.233307 531.809692,158.271057 
	C530.000000,147.611191 528.633423,136.876129 527.055725,125.728775 
z"/>
<path fill="#DDE44B" opacity="1.000000" stroke="none" 
	d="
M589.986694,131.059860 
	C591.727783,123.014931 593.484802,115.401154 595.034790,107.745461 
	C595.537598,105.261841 596.502380,104.107117 599.215515,103.894753 
	C604.839478,103.454536 611.227539,100.593407 615.809998,102.436295 
	C620.449951,104.302284 621.805359,111.519142 624.497681,116.438713 
	C641.494324,147.496017 658.333679,178.639603 675.408691,209.653534 
	C677.338745,213.159134 676.415588,213.696838 673.073181,214.022736 
	C667.780029,214.538879 662.478271,215.185699 657.263611,216.204437 
	C654.322449,216.779022 653.131592,215.702423 651.983215,213.256165 
	C649.089294,207.091599 645.838623,201.094772 642.931396,194.936111 
	C641.744507,192.421814 640.216736,191.625748 637.469788,192.037003 
	C625.130310,193.884506 612.779846,195.677246 600.400269,197.224564 
	C597.383118,197.601685 596.603882,199.232437 596.178467,201.672668 
	C595.036499,208.223846 593.805054,214.759995 592.724976,221.321167 
	C592.240112,224.266113 591.182983,225.900742 587.725952,226.079071 
	C582.593689,226.343842 577.463867,227.165039 572.401978,228.116501 
	C568.705261,228.811356 568.579895,227.286301 569.222534,224.408844 
	C575.668884,195.541656 582.056152,166.661270 588.464661,137.785614 
	C588.932373,135.677963 589.435425,133.578171 589.986694,131.059860 
z"/>
<path fill="#0D0D0D" opacity="1.000000" stroke="none" 
	d="
M768.466187,122.903641 
	C768.526184,122.877060 768.540466,123.124290 768.540466,123.124290 
	C768.540466,123.124290 768.406250,122.930222 768.466187,122.903641 
z"/>
<path fill="#DDE44B" opacity="1.000000" stroke="none" 
	d="
M67.057884,288.190125 
	C75.109756,251.745392 83.108147,215.720840 91.073616,179.688995 
	C91.659294,177.039597 91.968147,174.450638 95.747963,174.685608 
	C97.769592,174.811295 98.410210,173.651260 97.203415,171.822495 
	C97.022507,171.548340 96.933235,171.214691 96.793175,170.912476 
	C91.522766,159.540695 91.515480,159.485901 79.042152,161.112701 
	C69.474426,162.360550 59.937134,163.843750 50.365616,165.059357 
	C47.610729,165.409225 46.380688,166.529831 45.940582,169.348831 
	C44.889709,176.080002 43.214527,182.720215 42.327988,189.467667 
	C41.897579,192.743515 40.318283,193.567139 37.545521,193.890488 
	C32.752689,194.449417 27.962221,195.080124 23.206774,195.891724 
	C19.459908,196.531189 17.985321,196.055023 19.016909,191.547379 
	C25.321218,163.999939 31.333691,136.385742 37.461708,108.797859 
	C39.912067,97.766533 42.507748,86.766106 44.809643,75.704231 
	C45.333496,73.186829 46.119293,72.012444 48.834755,71.791168 
	C53.303734,71.427017 57.779060,70.801834 62.165730,69.878326 
	C65.420448,69.193115 66.858162,70.501060 68.318336,73.197090 
	C87.160828,107.987328 106.070938,142.741257 125.110558,177.423889 
	C126.955490,180.784622 126.196693,181.874100 122.776115,181.848175 
	C118.755280,181.817719 118.482048,183.096909 120.344528,186.490112 
	C137.300079,217.380814 154.098785,248.357574 170.959442,279.300415 
	C173.692322,284.315826 173.723282,284.251770 167.989182,284.975891 
	C163.203903,285.580200 158.410492,286.174255 153.665710,287.024261 
	C150.887970,287.521942 149.437012,286.607300 148.259888,284.087524 
	C145.376495,277.915283 142.132935,271.911774 139.220566,265.752319 
	C138.174774,263.540558 137.147110,262.413544 134.385208,262.825500 
	C121.550804,264.739960 108.687019,266.462311 95.820213,268.150269 
	C93.448921,268.461365 93.003235,269.875214 92.659668,271.840088 
	C91.485588,278.554657 90.014870,285.220764 88.983238,291.955292 
	C88.503105,295.089661 87.266716,296.569641 84.017143,296.871643 
	C78.719612,297.363983 73.449364,298.194275 68.187965,299.012848 
	C65.473755,299.435150 64.456978,298.743500 65.307335,295.889984 
	C66.017563,293.506714 66.444099,291.038910 67.057884,288.190125 
z"/>
<path fill="#0D0D0D" opacity="1.000000" stroke="none" 
	d="
M171.118225,136.843445 
	C172.174698,143.619568 177.899277,147.661285 180.950104,153.287506 
	C181.498428,154.298737 182.352859,155.142029 183.049789,156.074951 
	C185.450836,159.289124 184.567200,160.666061 180.634659,161.051270 
	C174.521439,161.650085 168.459412,162.771606 162.346161,163.369965 
	C158.224747,163.773346 157.357544,165.687119 157.949219,169.543060 
	C160.267502,184.651672 162.340408,199.798019 164.491653,214.932175 
	C167.320694,234.834457 170.141830,254.737869 172.940430,274.644440 
	C173.027893,275.266663 172.828644,275.929199 172.678329,277.404510 
	C168.327103,272.174622 166.186188,266.464478 163.308945,261.276276 
	C150.234085,237.699890 137.437271,213.968582 124.646690,190.235748 
	C121.253853,183.940369 121.457214,183.858139 128.738556,182.897781 
	C135.655884,181.985397 142.537964,180.774063 149.471375,180.026550 
	C154.048416,179.533096 153.157944,176.273636 152.865768,173.712830 
	C151.924362,165.462326 150.652725,157.249313 149.492722,149.024063 
	C149.028656,145.733627 148.437347,142.458771 148.062180,139.158844 
	C147.704620,136.013779 148.816986,133.974197 152.405991,133.965622 
	C153.720490,133.962479 155.059647,133.703629 156.343704,133.384872 
	C161.659088,132.065338 166.656891,131.947876 170.850418,136.795837 
	C171.200821,136.836288 171.071945,136.897888 171.118225,136.843445 
z"/>
<path fill="#DDE44B" opacity="1.000000" stroke="none" 
	d="
M951.100708,170.420593 
	C952.649597,173.031815 953.725586,174.810394 949.499695,175.133652 
	C944.038818,175.551331 938.590088,176.421844 933.209778,177.473862 
	C930.553162,177.993301 929.293274,177.236160 928.192627,174.917191 
	C925.129944,168.464386 921.800293,162.138382 918.729980,155.689026 
	C917.720520,153.568542 916.523438,152.792923 914.109436,153.156723 
	C901.778259,155.015121 889.442444,156.876465 877.063660,158.365784 
	C873.442322,158.801468 872.494019,160.545975 872.001404,163.659302 
	C870.962952,170.222824 869.575439,176.730453 868.471802,183.284714 
	C868.058899,185.736969 867.136719,186.912643 864.400635,187.133713 
	C859.104614,187.561646 853.786682,188.208221 848.598572,189.324844 
	C844.604553,190.184509 844.504578,188.643127 845.190002,185.573959 
	C849.606934,165.795593 853.942261,145.998978 858.334778,126.215134 
	C862.511658,107.402786 866.844421,88.623695 870.816956,69.768532 
	C871.554382,66.268372 872.958557,64.799774 876.353821,64.991165 
	C876.518494,65.000443 876.685669,64.968880 876.851562,64.954842 
	C882.114075,64.509560 888.259094,61.090828 892.315735,63.779938 
	C896.236816,66.379135 897.752319,72.623611 900.295410,77.282738 
	C917.173157,108.204300 934.043030,139.130188 951.100708,170.420593 
z"/>
<path fill="#0D0D0D" opacity="1.000000" stroke="none" 
	d="
M969.508789,96.492676 
	C969.516602,96.513344 969.500916,96.472008 969.508789,96.492676 
z"/>
<path fill="#DCE34B" opacity="1.000000" stroke="none" 
	d="
M815.908081,188.143158 
	C811.248413,155.090607 806.646118,122.484016 802.041016,89.877831 
	C801.506226,86.090698 801.065857,82.285454 800.371460,78.527466 
	C799.975342,76.384094 800.633057,75.476685 802.752075,75.214134 
	C808.197693,74.539406 813.641357,73.829521 819.062195,72.982651 
	C821.664185,72.576149 822.543457,73.582306 822.888245,76.078720 
	C827.530090,109.689026 832.298279,143.281937 836.906555,176.896774 
	C837.526672,181.419998 840.508301,187.363739 837.900146,190.125259 
	C835.373718,192.800232 829.173462,192.013275 824.583374,192.725037 
	C823.597595,192.877884 822.546387,192.774902 821.612610,193.067978 
	C817.462830,194.370361 815.688660,192.804092 815.908081,188.143158 
z"/>
<path fill="#0D0D0D" opacity="1.000000" stroke="none" 
	d="
M340.421997,157.019318 
	C339.352753,154.267838 340.258209,153.207199 343.069885,152.638153 
	C350.379883,151.158737 350.055267,151.011734 349.266693,143.778778 
	C346.762115,120.806145 342.247894,98.171547 338.162720,75.462280 
	C338.111115,75.175217 338.310242,74.843056 338.519073,74.051407 
	C341.985657,78.546112 343.497223,83.938766 347.581787,87.956802 
	C347.905304,90.163361 348.761169,91.891518 349.743195,93.687111 
	C359.557037,111.631752 369.272705,129.630051 379.050354,147.594574 
	C379.904083,149.163132 380.050598,150.713608 379.672760,152.404572 
	C372.853546,182.922165 366.043823,213.441864 359.222015,243.958878 
	C359.081238,244.588577 358.821320,245.191650 358.341278,246.637695 
	C352.143616,238.161865 346.203613,230.268463 340.539307,222.181992 
	C338.176453,218.808731 333.532623,215.654449 334.045441,212.034409 
	C334.488495,208.906754 339.336426,206.553833 341.858856,203.541641 
	C349.416931,194.516113 350.265198,183.833023 348.316772,172.875107 
	C347.288544,167.092361 346.127625,160.992188 340.421997,157.019318 
z"/>
<path fill="#0D0D0D" opacity="1.000000" stroke="none" 
	d="
M300.613892,165.583755 
	C316.116364,163.250717 325.023346,171.868500 322.888885,186.805832 
	C322.124420,192.155670 318.847961,195.868912 313.936188,198.005173 
	C306.323273,201.316177 298.016815,201.198105 290.020874,202.608734 
	C288.180634,202.933380 287.332184,201.590332 287.100067,199.920746 
	C285.773773,190.378784 284.459595,180.835114 283.159149,171.289581 
	C282.830109,168.874207 284.391663,168.007095 286.372528,167.698822 
	C290.967316,166.983795 295.575531,166.355286 300.613892,165.583755 
z"/>
<path fill="#0D0D0D" opacity="1.000000" stroke="none" 
	d="
M264.013611,88.990776 
	C267.602203,96.171562 270.981445,103.040955 274.469818,109.854485 
	C275.732727,112.321213 275.787750,113.784828 272.457336,114.211479 
	C266.369415,114.991394 260.323669,116.095818 254.242523,116.935875 
	C251.773743,117.276917 249.596008,116.442368 250.116272,113.489372 
	C252.217896,101.560806 254.526703,89.668678 256.789642,77.768929 
	C256.837158,77.518936 257.253601,77.339096 257.922852,76.756905 
	C259.937500,80.803566 261.892456,84.730431 264.013611,88.990776 
z"/>
<path fill="#0D0D0D" opacity="1.000000" stroke="none" 
	d="
M399.002472,171.275269 
	C399.484467,169.315399 399.914520,167.749863 400.620941,165.178452 
	C404.926147,173.795822 408.807526,181.564392 412.688507,189.333145 
	C414.321136,192.601181 415.880219,195.908615 417.606445,199.126419 
	C419.180939,202.061386 418.159485,203.512238 415.118713,203.902267 
	C409.207489,204.660416 403.248047,205.126907 397.385651,206.154114 
	C392.906067,206.939026 392.651642,204.940048 393.325745,201.482437 
	C395.260956,191.556595 397.083649,181.608795 399.002472,171.275269 
z"/>
<path fill="#171807" opacity="1.000000" stroke="none" 
	d="
M602.466003,168.421066 
	C604.912476,155.549973 607.223938,143.090134 609.535400,130.630280 
	C609.886169,130.607864 610.236938,130.585449 610.587646,130.563034 
	C617.887634,145.159348 625.187561,159.755661 632.781555,174.939972 
	C622.594604,176.363510 612.948669,177.678650 603.315125,179.079132 
	C600.673645,179.463150 600.653320,178.071671 601.013672,176.181992 
	C601.479858,173.737259 601.894287,171.282654 602.466003,168.421066 
z"/>
<path fill="#0F1005" opacity="1.000000" stroke="none" 
	d="
M111.035812,209.983948 
	C116.988457,221.993134 122.804344,233.656555 128.807953,245.696411 
	C118.931618,247.130539 109.299538,248.530746 99.666801,249.926498 
	C98.030197,250.163635 96.621323,250.227264 97.086258,247.787460 
	C100.034546,232.315643 102.940857,216.835846 106.066124,200.271606 
	C108.031120,204.079926 109.465088,206.859055 111.035812,209.983948 
z"/>
<path fill="#101105" opacity="1.000000" stroke="none" 
	d="
M68.793251,144.774841 
	C62.463573,145.612762 56.570885,146.383423 50.200089,147.216599 
	C53.285629,130.640839 56.256634,114.680382 59.525639,97.119026 
	C67.503403,112.963531 74.879364,127.612808 82.458214,142.665039 
	C77.691063,143.401138 73.460648,144.054352 68.793251,144.774841 
z"/>
<path fill="#111205" opacity="1.000000" stroke="none" 
	d="
M890.851074,138.722626 
	C886.778198,139.242111 883.120178,139.560394 879.524536,140.219391 
	C877.126953,140.658798 876.516602,139.924484 876.940125,137.675934 
	C879.790894,122.540596 882.608215,107.398972 886.458374,92.034111 
	C888.961243,96.952179 891.472656,101.865944 893.965149,106.789276 
	C898.245544,115.244530 902.359009,123.789566 906.859863,132.125549 
	C908.819946,135.755844 907.629883,136.588913 904.156006,136.917999 
	C899.851562,137.325745 895.578796,138.068344 890.851074,138.722626 
z"/>
<path fill="#0D0D0D" opacity="1.000000" stroke="none" 
	d="
M619.052979,175.048035 
	C614.842529,175.674591 611.081238,176.356415 607.295471,176.851120 
	C605.234314,177.120483 602.789185,177.080536 603.331604,174.035400 
	C605.481201,161.969193 607.834106,149.939194 610.166199,137.606888 
	C612.882202,138.378067 613.170105,140.395508 613.929138,141.886459 
	C618.687561,151.232834 623.228088,160.692841 628.135437,169.959167 
	C629.786255,173.076401 629.360474,174.030518 625.895325,174.105606 
	C623.755249,174.151993 621.626038,174.701584 619.052979,175.048035 
z"/>
<path fill="#0D0D0D" opacity="1.000000" stroke="none" 
	d="
M100.559799,247.629639 
	C98.517296,244.015961 100.481430,240.768188 101.025734,237.480026 
	C102.461327,228.807709 104.208977,220.186768 105.865685,211.551758 
	C106.067802,210.498322 105.768372,208.937271 107.374374,208.829468 
	C108.485970,208.754852 108.940201,209.933838 109.380684,210.812546 
	C114.295586,220.616989 119.213074,230.420242 124.082489,240.247314 
	C125.611420,243.332870 124.627235,244.723236 121.112671,245.082138 
	C114.361099,245.771606 107.648163,246.839371 100.559799,247.629639 
z"/>
<path fill="#0D0D0D" opacity="1.000000" stroke="none" 
	d="
M65.674088,113.341118 
	C69.713318,121.420265 73.527344,129.197418 77.487228,136.899582 
	C79.207481,140.245544 78.479507,141.694336 74.646042,142.092239 
	C68.703789,142.709030 62.781025,143.583862 56.887897,144.574677 
	C53.834240,145.088089 52.648392,143.805145 53.143066,141.099945 
	C55.266048,129.490005 57.540337,117.907684 59.792820,106.321777 
	C59.875191,105.898094 60.305519,105.542053 61.034195,104.488960 
	C62.655605,107.576653 64.081848,110.292671 65.674088,113.341118 
z"/>
<path fill="#0D0D0C" opacity="1.000000" stroke="none" 
	d="
M889.070007,101.124374 
	C894.220642,111.388313 899.143127,121.375946 904.260742,131.262527 
	C905.489502,133.636337 905.734375,134.705658 902.557617,135.096115 
	C896.304993,135.864624 890.101318,137.022202 883.858582,137.882706 
	C880.745728,138.311813 878.693604,137.761078 879.533875,133.595505 
	C881.894775,121.891327 883.943542,110.124184 886.110413,98.409096 
	C888.311890,98.099663 888.152588,99.940979 889.070007,101.124374 
z"/>
</svg>